<?xml version="1.0" standalone="no"?>
<!DOCTYPE svg PUBLIC "-//W3C//DTD SVG 20010904//EN"
 "http://www.w3.org/TR/2001/REC-SVG-20010904/DTD/svg10.dtd">
<svg version="1.0" xmlns="http://www.w3.org/2000/svg"
 width="260.000000pt" height="260.000000pt" viewBox="0 0 260.000000 260.000000"
 preserveAspectRatio="xMidYMid meet">
<metadata>
Created by potrace 1.11, written by Peter Selinger 2001-2013
</metadata>
<g transform="translate(0.000000,260.000000) scale(0.100000,-0.100000)"
fill="#000000" stroke="none">
<path d="M1086 2484 c-237 -43 -466 -163 -637 -333 -467 -468 -467 -1234 0
-1702 468 -467 1234 -467 1702 0 467 468 467 1234 0 1702 -174 173 -401 291
-645 334 -109 19 -313 18 -420 -1z m424 -110 c434 -82 782 -430 864 -864 21
-107 21 -313 0 -420 -82 -434 -430 -782 -864 -864 -107 -21 -313 -21 -420 0
-434 82 -782 430 -864 864 -21 107 -21 313 0 420 81 427 416 769 844 860 110
24 326 26 440 4z"/>
<path d="M1089 2300 c-185 -39 -372 -141 -510 -279 -400 -399 -400 -1043 0
-1442 399 -400 1043 -400 1442 0 400 399 400 1043 0 1442 -139 140 -326 241
-515 280 -119 24 -299 24 -417 -1z m148 -160 c157 -90 246 -352 175 -513 -29
-66 -70 -89 -148 -85 -50 3 -69 10 -109 38 -58 42 -118 127 -147 207 -25 70
-35 202 -19 260 13 47 53 100 85 113 45 19 110 11 163 -20z m550 -191 c69 -25
138 -123 163 -228 27 -116 -12 -274 -81 -324 -57 -41 -145 -37 -205 8 -130
100 -165 380 -61 494 52 57 118 75 184 50z m-983 -148 c141 -69 249 -218 250
-346 1 -69 -14 -99 -67 -139 -22 -16 -42 -20 -97 -20 -86 1 -172 40 -254 115
-125 114 -178 278 -120 367 48 73 167 83 288 23z m819 -495 c171 -44 341 -137
430 -236 61 -68 68 -103 33 -174 -42 -86 -113 -130 -311 -191 -66 -21 -132
-43 -146 -51 -15 -7 -53 -46 -85 -87 -83 -105 -122 -131 -205 -135 -124 -7
-175 27 -212 143 -19 61 -22 91 -21 230 1 172 17 259 68 371 29 63 90 126 136
141 65 20 209 15 313 -11z m-787 -145 c73 -34 151 -107 185 -172 32 -60 33
-165 3 -206 -27 -38 -99 -73 -149 -73 -128 0 -275 92 -337 210 -18 35 -23 61
-23 117 0 68 2 74 33 106 19 19 48 39 65 45 53 18 152 6 223 -27z"/>
</g>
</svg>
